<svg width="41" height="46" viewBox="0 0 41 46" fill="none" xmlns="http://www.w3.org/2000/svg">
<path d="M20.0041 5.72884V1.25384C20.0041 0.128836 18.6541 -0.421164 17.8791 0.378836L10.8791 7.35384C10.3791 7.85384 10.3791 8.62884 10.8791 9.12884L17.8541 16.1038C18.6541 16.8788 20.0041 16.3288 20.0041 15.2038V10.7288C28.2791 10.7288 35.0041 17.4538 35.0041 25.7288C35.0041 32.5288 30.4291 38.2788 24.2291 40.1038C23.1791 40.4038 22.5041 41.4038 22.5041 42.4788C22.5041 44.1038 24.0541 45.3788 25.6291 44.9038C29.7765 43.6921 33.4193 41.1684 36.0111 37.7112C38.6029 34.254 40.0039 30.0497 40.0041 25.7288C40.0041 14.6788 31.0541 5.72884 20.0041 5.72884ZM5.00411 25.7288C5.00411 22.3788 6.10411 19.2788 7.97911 16.7538C8.72911 15.7538 8.62911 14.3788 7.75411 13.4788C6.70411 12.4288 4.90411 12.5288 4.00411 13.7288C2.06403 16.3117 0.779245 19.3266 0.259885 22.5149C-0.259475 25.7033 0.00208534 28.97 1.02214 32.0351C2.0422 35.1002 3.79033 37.8722 6.11667 40.1135C8.44301 42.3548 11.2782 43.9986 14.3791 44.9038C15.9541 45.3788 17.5041 44.1038 17.5041 42.4788C17.5041 41.4038 16.8291 40.4038 15.7791 40.1038C9.57911 38.2788 5.00411 32.5288 5.00411 25.7288Z" fill="#002B36"/>
</svg>
